# xmcd
#
# Track frame offsets: 
#        180
#        11468
#        23593
#        35996
#        47212
#        59895
#        73199
#        86675
#        100918
#        112576
#        124993
#        139377
#        153316
#        166279
#        179885
#        193483
#        207912
#        220548
#        233484
#        247730
#
# Disc length: 3502 seconds
#
# Revision: 0
# Processed by: cddbd v1.5.2PL0 Copyright (c) Steve Scherf et al.
# Submitted via: ExactAudioCopy v0.95b4
#
DISCID=230dac14
DTITLE=Various Artist - 125 Blues Hits
DYEAR=2006
DGENRE=Blues
TTITLE0=T-Bone Walker - Lonesome woman blues
TTITLE1=Oscar's Chicago Swingers - My gal's been foolin' me
TTITLE2=Joe Williams and Count Basie - It's raining again
TTITLE3=John Lee Hooker - Boom Boom
TTITLE4=Bukka White - Pinebluff, Arkansas
TTITLE5=Lonnie Johnson - Keep what you got
TTITLE6=Skip James - Devil got my woman
TTITLE7=T-Bone Walker - Goodby Blues
TTITLE8=Blind Boy Fuller and Sonny Terry - Harmonica and washboard bre
TTITLE8=akdown
TTITLE9=John Lee Williamson - I win the car blues
TTITLE10=Muddy Waters - Burr clover blues
TTITLE11=Leroy Carr - Midnight hour blues
TTITLE12=Brownie McGhee - Ain't no tellin'
TTITLE13=Josh White - Stormy weather no.1
TTITLE14=Bukka White - Shake 'em on down
TTITLE15=Sonny Terry - Hot headed woman
TTITLE16=Champion Jack Dupree - Warehouse man blues
TTITLE17=Arthur Big Boy Crudup - Give me a 32 - 20
TTITLE18=Lightnin' Hopkins - Blues (that mean old twister)
TTITLE19=Big Joe Turner - Chains of love
EXTD=
EXTT0=
EXTT1=
EXTT2=
EXTT3=
EXTT4=
EXTT5=
EXTT6=
EXTT7=
EXTT8=
EXTT9=
EXTT10=
EXTT11=
EXTT12=
EXTT13=
EXTT14=
EXTT15=
EXTT16=
EXTT17=
EXTT18=
EXTT19=
PLAYORDER=
